<svg width="162" height="91" viewBox="0 0 162 91" fill="none" xmlns="http://www.w3.org/2000/svg">
<path d="M12.2376 79.151C12.2588 79.0554 12.2716 78.9852 12.2716 78.9384C12.2716 78.8874 12.2503 78.8619 12.2121 78.8619C12.178 78.8619 12.1036 78.9257 11.9909 79.049C11.8825 79.168 11.7443 79.3381 11.5742 79.5592C11.4042 79.7803 11.0406 80.2013 10.4857 80.8179C9.92867 81.4302 9.35676 82.0063 8.76785 82.5442C7.1733 84.0707 5.57876 85.2358 3.97997 86.0479C3.58878 86.2393 3.15719 86.3371 2.68733 86.3371C0.897194 86.3371 0 84.987 0 82.2891C0 79.8803 1.14382 76.9803 3.4272 73.5893C4.50936 72.0139 5.80413 70.4725 7.31362 68.963C8.82737 67.4492 10.4304 66.1034 12.127 64.9235C13.8215 63.7456 15.6648 62.7953 17.6547 62.0746C19.6447 61.3496 21.5858 60.986 23.4801 60.986C23.7969 60.986 24.2243 61.0966 24.7643 61.3177C25.6764 61.7089 26.1335 62.1256 26.1335 62.5678C26.1335 62.8123 25.9719 62.9484 25.6487 62.976C25.5297 62.976 25.4701 63.0249 25.4701 63.1206C25.4701 63.2184 25.6445 63.4076 25.9974 63.6904C26.3546 63.9753 26.5331 64.2474 26.5331 64.5068C26.5331 64.7619 26.4481 64.9894 26.278 65.1871C25.047 66.5371 24.0627 67.6597 23.3271 68.5548C22.5893 69.452 22.0302 70.1195 21.6517 70.5618C21.2712 71.004 20.8396 71.5142 20.3591 72.0925C19.8829 72.6708 19.3492 73.3979 18.7603 74.2696C18.1693 75.1434 17.6292 76.0108 17.136 76.8719C16.0071 78.9597 15.4437 80.8689 15.4437 82.6037C15.4437 84.3343 15.601 85.9757 15.9199 87.5362C16.2431 89.0946 16.5747 90.0471 16.9149 90.3936C16.9149 90.4659 16.8298 90.5042 16.6598 90.5042C15.5308 90.5042 14.5613 90.0619 13.7513 89.1775C12.2758 87.5319 11.5402 85.3697 11.5402 82.6888C11.5402 81.7321 11.772 80.5521 12.2376 79.151ZM17.068 70.8594L24.1435 63.7499C24.3135 63.5756 24.3986 63.4501 24.3986 63.3757C24.3986 63.3034 24.3348 63.2652 24.2115 63.2652C22.3236 63.5607 20.3208 64.3346 18.2075 65.5868C16.0921 66.8412 14.1723 68.2911 12.4502 69.941C10.7323 71.5865 9.14628 73.2704 7.69631 74.9925C6.2506 76.7103 5.12804 78.2581 4.32865 79.6358C3.52925 81.0092 3.12955 81.9893 3.12955 82.5782C3.12955 82.6803 3.19758 82.7313 3.33365 82.7313C3.46972 82.7313 3.73335 82.642 4.12454 82.4592C4.51999 82.2721 5.87854 81.1899 8.19806 79.2106C10.5218 77.2333 13.4792 74.4482 17.068 70.8594Z" fill="white"/>
<path d="M36.4558 82.3231C37.2659 82.3231 38.8668 81.6003 41.2607 80.1545C43.6589 78.7046 45.8403 77.2525 47.809 75.8004L50.794 73.6233C51.0151 73.7934 51.1256 74.0039 51.1256 74.2526C51.1256 74.4971 51.0002 74.7289 50.7514 74.95C50.5069 75.1711 50.1583 75.4921 49.7054 75.9109C49.2504 76.3319 48.383 77.0824 47.1031 78.1646C45.8275 79.2425 44.6369 80.2226 43.5314 81.107C40.6272 83.4436 38.4905 84.817 37.1192 85.2316C36.677 85.3549 36.2199 85.4187 35.75 85.4187C35.2844 85.4187 34.9166 85.3804 34.6445 85.3081C34.3766 85.2337 34.0832 85.0742 33.76 84.8319C33.1243 84.2876 32.8075 83.0842 32.8075 81.2176C32.8075 80.7031 33.0287 79.9164 33.4709 78.8619C33.9131 77.8031 34.6402 76.5232 35.6565 75.0265C36.677 73.5255 37.8697 72.0245 39.2367 70.5278C40.6017 69.031 42.3344 67.5343 44.4328 66.0375C46.5355 64.5366 48.7785 63.3162 51.1596 62.3807C51.5274 62.2617 51.8591 62.2021 52.1546 62.2021C52.448 62.2021 52.718 62.334 52.9625 62.5933C53.2113 62.8485 53.3835 63.11 53.4813 63.3757L53.6684 63.7499C53.6684 64.3112 52.7946 65.5507 51.0491 67.4663C49.2568 69.4562 47.1882 71.3569 44.841 73.1641C42.4938 74.9734 40.3104 76.5147 38.2928 77.7904C36.6472 78.8747 35.8265 80.0057 35.8265 81.1836C35.8265 81.9447 36.0349 82.3231 36.4558 82.3231ZM39.7725 74.6948C40.3848 74.6948 42.243 73.1853 45.3513 70.1621C48.4638 67.141 50.0201 65.4571 50.0201 65.1106L49.9776 65.0341L49.3567 65.3317C48.0747 66.1651 46.3718 67.5917 44.2457 69.6093C42.1239 71.6227 40.6569 73.1938 39.8405 74.3207C39.7427 74.4461 39.696 74.5396 39.696 74.6013C39.696 74.6651 39.7215 74.6948 39.7725 74.6948Z" fill="white"/>
<path d="M52.0416 83.2075L52.3393 80.8519C52.3393 80.7796 52.318 80.7413 52.2797 80.7413C52.2457 80.7413 52.1798 80.7902 52.0841 80.8859C51.761 81.2324 51.3528 81.6577 50.8595 82.1615C50.3705 82.6612 49.5329 83.3351 48.3423 84.1855C47.1517 85.0296 46.1865 85.4527 45.4508 85.4527C45.3275 85.4293 45.1745 85.3868 44.9916 85.3251C44.8045 85.2613 44.5643 85.0615 44.2688 84.7213C43.9754 84.3769 43.8265 83.8858 43.8265 83.2501C43.8265 82.6101 44.3113 81.6321 45.2808 80.3161C46.2502 79.0022 47.4089 77.7117 48.759 76.4467C50.1133 75.1774 51.6185 74.0783 53.2747 73.1471C54.9352 72.2116 56.3809 71.7439 57.6119 71.7439C58.0754 71.7673 58.4453 72.0989 58.7174 72.7389C58.9598 72.4965 59.1809 72.3732 59.3807 72.3732C59.5785 72.3732 59.8102 72.522 60.0781 72.8154C60.2248 72.8388 60.3715 72.9174 60.5203 73.0535C60.667 73.1896 60.7414 73.3809 60.7414 73.6233C60.7414 73.8678 60.5713 74.1378 60.2312 74.4312C59.7145 75.0733 59.1107 75.7983 58.4198 76.6083C57.7331 77.4204 57.2419 78.003 56.9485 78.3601C56.653 78.7173 56.3469 79.117 56.0301 79.5592C55.4858 80.3204 55.1903 80.9348 55.1456 81.4047C57.6501 80.1971 61.594 77.6033 66.975 73.6233C67.1961 73.7934 67.3067 74.0039 67.3067 74.2526C67.3067 74.4971 67.2068 74.7076 67.009 74.8819C66.8092 75.052 66.5689 75.2625 66.2862 75.5112C66.0077 75.7557 65.4485 76.2341 64.6108 76.9484C63.7774 77.6585 62.9717 78.3389 62.1956 78.9895C61.4239 79.6422 60.5394 80.3671 59.5423 81.1665C58.5495 81.9617 57.6586 82.642 56.872 83.2075C54.9777 84.5576 53.7977 85.2316 53.3343 85.2316C52.8686 85.2316 52.537 85.0827 52.3393 84.7893C52.1394 84.4959 52.0416 83.9687 52.0416 83.2075ZM48.2827 81.6598C48.5761 81.6598 49.4776 81.0602 50.9871 79.8569C52.5008 78.6493 53.9338 77.4459 55.2902 76.2426L57.3567 74.4312C57.4524 74.3355 57.5013 74.2696 57.5013 74.2356C57.5013 74.1973 57.463 74.1761 57.3908 74.1761C56.4553 74.1761 55.2349 74.7118 53.7339 75.7834C52.2372 76.8506 50.9403 77.9817 49.8475 79.1766C48.759 80.3671 48.2147 81.1708 48.2147 81.5832C48.2147 81.6343 48.236 81.6598 48.2827 81.6598Z" fill="white"/>
<path d="M72.7953 79.5252C72.823 77.2418 73.6287 74.8883 75.2105 72.4667C76.7966 70.0473 78.7695 67.9212 81.1295 66.0886C83.4873 64.258 86.1044 62.7592 88.9789 61.5898C91.8533 60.4226 94.5534 59.838 97.0834 59.838C98.5333 59.838 99.8813 60.142 101.123 60.7479C102.364 61.3496 102.985 62.2595 102.985 63.4778C102.985 64.6917 102.29 66.0035 100.902 67.4152C99.5113 68.8269 97.853 70.0324 95.9268 71.0295C93.9985 72.0224 92.3083 72.5178 90.8583 72.5178C90.195 72.5178 89.5061 72.3349 88.7918 71.965C88.0817 71.5972 87.7287 71.0805 87.7287 70.4172C87.7287 70.0494 88.0221 69.7284 88.6132 69.4562C90.6988 68.6228 92.27 67.8128 93.3245 67.024C93.5456 66.7817 93.7093 66.6583 93.8178 66.6583C93.9304 66.6583 93.9878 66.7583 93.9878 66.956C93.9878 67.2962 93.5711 67.7022 92.7377 68.1721C92.1467 68.6143 91.8533 68.8609 91.8533 68.912C91.8533 68.9587 91.8639 68.98 91.8873 68.98C92.3805 68.98 93.8794 68.036 96.386 66.1481C98.8905 64.2559 100.145 63.0356 100.145 62.4913C100.145 62.1511 99.8132 61.981 99.1499 61.981C96.79 61.981 94.396 62.5402 91.9638 63.6564C89.5316 64.7747 87.3737 66.1736 85.4921 67.8574C83.6148 69.5413 81.914 71.325 80.3896 73.2066C78.8631 75.0839 77.6959 76.8273 76.8859 78.4367C76.0737 80.0482 75.6698 81.2941 75.6698 82.1785C75.6698 82.7186 75.927 82.9864 76.4436 82.9864C76.8859 82.9864 77.7703 82.7908 79.097 82.3997C80.4236 82.0042 82.3456 81.2154 84.8628 80.0355C87.3843 78.8576 89.8144 77.4459 92.1509 75.8004C92.321 75.6537 92.4358 75.5793 92.4996 75.5793C92.5613 75.5793 92.5931 75.6303 92.5931 75.7323C92.5931 75.8301 92.3763 76.2469 91.9468 76.9825C91.5152 77.7202 90.8625 78.6153 89.9909 79.6698C89.117 80.7243 88.1284 81.7512 87.0229 82.7483C85.9173 83.7412 84.5843 84.5937 83.0259 85.3081C81.4654 86.0224 80.0282 86.3796 78.7143 86.3796C77.3982 86.3796 76.3671 86.1436 75.6187 85.6738C74.8704 85.2082 74.3218 84.6341 73.9774 83.9474C73.2631 82.5697 72.8825 81.3281 72.8379 80.2226L72.7953 79.5252Z" fill="white"/>
<path d="M99.9965 83.2075L100.294 80.8519C100.294 80.7796 100.273 80.7413 100.235 80.7413C100.201 80.7413 100.135 80.7902 100.039 80.8859C99.7158 81.2324 99.3076 81.6577 98.8144 82.1615C98.3254 82.6612 97.4877 83.3351 96.2971 84.1855C95.1065 85.0296 94.1413 85.4527 93.4057 85.4527C93.2824 85.4293 93.1293 85.3868 92.9465 85.3251C92.7594 85.2613 92.5191 85.0615 92.2236 84.7213C91.9302 84.3769 91.7814 83.8858 91.7814 83.2501C91.7814 82.6101 92.2661 81.6321 93.2356 80.3161C94.2051 79.0022 95.3638 77.7117 96.7138 76.4467C98.0681 75.1774 99.5734 74.0783 101.23 73.1471C102.89 72.2116 104.336 71.7439 105.567 71.7439C106.03 71.7673 106.4 72.0989 106.672 72.7389C106.915 72.4965 107.136 72.3732 107.336 72.3732C107.533 72.3732 107.765 72.522 108.033 72.8154C108.18 72.8388 108.326 72.9174 108.475 73.0535C108.622 73.1896 108.696 73.3809 108.696 73.6233C108.696 73.8678 108.526 74.1378 108.186 74.4312C107.669 75.0733 107.066 75.7983 106.375 76.6083C105.688 77.4204 105.197 78.003 104.903 78.3601C104.608 78.7173 104.302 79.117 103.985 79.5592C103.441 80.3204 103.145 80.9348 103.1 81.4047C105.605 80.1971 109.549 77.6033 114.93 73.6233C115.151 73.7934 115.262 74.0039 115.262 74.2526C115.262 74.4971 115.162 74.7076 114.964 74.8819C114.764 75.052 114.524 75.2625 114.241 75.5112C113.963 75.7557 113.403 76.2341 112.566 76.9484C111.732 77.6585 110.927 78.3389 110.15 78.9895C109.379 79.6422 108.494 80.3671 107.497 81.1665C106.504 81.9617 105.613 82.642 104.827 83.2075C102.933 84.5576 101.753 85.2316 101.289 85.2316C100.823 85.2316 100.492 85.0827 100.294 84.7893C100.094 84.4959 99.9965 83.9687 99.9965 83.2075ZM96.2376 81.6598C96.531 81.6598 97.4324 81.0602 98.9419 79.8569C100.456 78.6493 101.889 77.4459 103.245 76.2426L105.312 74.4312C105.407 74.3355 105.456 74.2696 105.456 74.2356C105.456 74.1973 105.418 74.1761 105.346 74.1761C104.41 74.1761 103.19 74.7118 101.689 75.7834C100.192 76.8506 98.8952 77.9817 97.8024 79.1766C96.7138 80.3671 96.1696 81.1708 96.1696 81.5832C96.1696 81.6343 96.1908 81.6598 96.2376 81.6598Z" fill="white"/>
<path d="M111.019 77.8669C112.373 76.9314 113.787 75.9237 115.262 74.8394C114.474 74.3015 113.97 73.7742 113.749 73.2576C113.674 73.0833 113.638 72.9578 113.638 72.8834C113.638 72.3966 113.795 72.0734 114.114 71.914C114.437 71.7502 114.952 71.6673 115.662 71.6673C115.934 71.6673 116.734 71.999 118.06 72.6623C119.387 73.3256 120.229 73.6573 120.586 73.6573C120.943 73.6573 121.439 73.5553 122.074 73.3512C122.714 73.1428 123.224 73.0365 123.605 73.0365C123.99 73.0365 124.268 73.1215 124.438 73.2916C125.051 74.1038 125.357 74.597 125.357 74.7714C125.357 74.9415 125.276 75.0839 125.119 75.1966C124.959 75.305 124.455 75.6537 123.605 76.2426C122.759 76.8336 121.932 77.4374 121.122 78.054C120.31 78.6663 119.548 79.353 118.834 80.112C118.12 80.8731 117.763 81.4876 117.763 81.9574C117.763 82.0318 117.824 82.068 117.95 82.068C119.276 82.068 123.75 79.3764 131.369 73.989C131.539 73.989 131.624 74.1463 131.624 74.4567C131.624 74.7629 130.651 75.8216 128.708 77.6288C126.769 79.4317 124.577 81.2006 122.134 82.9354C119.689 84.666 117.916 85.5292 116.81 85.5292C115.086 85.5292 114.225 84.6703 114.225 82.9524C114.225 82.017 114.535 81.1134 115.16 80.2396C115.79 79.3679 117.112 78.1943 119.132 76.7188C118.711 76.7188 118.145 76.6168 117.431 76.4127C116.721 76.2043 116.268 75.9513 116.07 75.6558C115.428 76.2171 114.323 77.1611 112.754 78.4877C112.384 78.7598 111.905 78.8959 111.316 78.8959C110.725 78.8959 110.432 78.8066 110.432 78.6238C110.432 78.4367 110.628 78.1858 111.019 77.8669Z" fill="white"/>
<path d="M143.713 67.7299L145.592 67.6874C148.025 67.6874 149.793 68.0339 150.899 68.7249C151.443 68.895 151.715 69.1161 151.715 69.3882C151.715 69.5817 151.473 69.7156 150.992 69.7879C150.516 69.8623 148.858 70.0558 146.018 70.3662C143.181 70.6723 141.234 70.8488 140.175 70.8935C139.71 70.9232 138.636 71.7354 136.952 73.3342C135.268 74.9287 133.663 76.6827 132.139 78.5983C130.619 80.516 129.86 81.8554 129.86 82.6208C129.86 82.7398 129.919 82.8461 130.038 82.9354C130.161 83.0205 130.314 83.063 130.497 83.063C130.684 83.063 130.974 82.9907 131.365 82.8419C136.036 80.0865 140.571 77.076 144.971 73.8104C145.193 73.9805 145.303 74.191 145.303 74.4397C145.303 74.6842 145.178 74.9223 144.929 75.1541C144.684 75.3879 144.321 75.7238 143.84 76.1661C143.364 76.6083 142.473 77.4077 141.17 78.5643C139.871 79.7208 138.644 80.7541 137.488 81.6598C134.392 84.1664 132.228 85.6142 130.999 86.0054C130.557 86.1288 130.034 86.1925 129.434 86.1925C128.833 86.1925 128.28 85.8821 127.776 85.2656C127.27 84.6533 127.019 83.8199 127.019 82.7653C127.019 81.7108 127.699 80.1886 129.06 78.1986C130.425 76.2043 132.287 74.1633 134.647 72.0755C134.868 71.9055 134.979 71.7481 134.979 71.5993C134.979 71.4526 134.72 71.3782 134.205 71.3782L131.884 71.4462C128.618 71.4462 126.934 71.0784 126.832 70.3407C126.073 70.194 125.692 69.9729 125.692 69.6773C125.692 69.5817 125.743 69.5285 125.846 69.5158C125.943 69.5051 126.028 69.4945 126.101 69.4818C126.175 69.4647 126.296 69.4456 126.466 69.4222C126.636 69.401 127.991 69.2054 130.531 68.8354C133.076 68.4676 135.974 68.1593 139.223 67.9085L141.765 64.5238C141.912 64.2304 142.429 64.0816 143.313 64.0816C144.198 64.0816 144.64 64.2665 144.64 64.6343C144.64 64.7534 144.54 64.9745 144.342 65.2977L143.424 66.5818C143.298 66.9794 143.224 67.2749 143.203 67.4663C143.203 67.6427 143.373 67.7299 143.713 67.7299Z" fill="white"/>
<path d="M146.735 83.2075L147.033 80.8519C147.033 80.7796 147.011 80.7413 146.973 80.7413C146.939 80.7413 146.873 80.7902 146.777 80.8859C146.454 81.2324 146.046 81.6577 145.553 82.1615C145.064 82.6612 144.226 83.3351 143.036 84.1855C141.845 85.0296 140.88 85.4527 140.144 85.4527C140.021 85.4293 139.868 85.3868 139.685 85.3251C139.498 85.2613 139.258 85.0615 138.962 84.7213C138.669 84.3769 138.52 83.8858 138.52 83.2501C138.52 82.6101 139.005 81.6321 139.974 80.3161C140.944 79.0022 142.102 77.7117 143.452 76.4467C144.807 75.1774 146.312 74.0783 147.968 73.1471C149.628 72.2116 151.074 71.7439 152.305 71.7439C152.769 71.7673 153.139 72.0989 153.411 72.7389C153.653 72.4965 153.874 72.3732 154.074 72.3732C154.272 72.3732 154.504 72.522 154.771 72.8154C154.918 72.8388 155.065 72.9174 155.214 73.0535C155.36 73.1896 155.435 73.3809 155.435 73.6233C155.435 73.8678 155.265 74.1378 154.924 74.4312C154.408 75.0733 153.804 75.7983 153.113 76.6083C152.426 77.4204 151.935 78.003 151.642 78.3601C151.346 78.7173 151.04 79.117 150.723 79.5592C150.179 80.3204 149.884 80.9348 149.839 81.4047C152.343 80.1971 156.287 77.6033 161.668 73.6233C161.889 73.7934 162 74.0039 162 74.2526C162 74.4971 161.9 74.7076 161.702 74.8819C161.503 75.052 161.262 75.2625 160.98 75.5112C160.701 75.7557 160.142 76.2341 159.304 76.9484C158.471 77.6585 157.665 78.3389 156.889 78.9895C156.117 79.6422 155.233 80.3671 154.236 81.1665C153.243 81.9617 152.352 82.642 151.565 83.2075C149.671 84.5576 148.491 85.2316 148.028 85.2316C147.562 85.2316 147.23 85.0827 147.033 84.7893C146.833 84.4959 146.735 83.9687 146.735 83.2075ZM142.976 81.6598C143.269 81.6598 144.171 81.0602 145.68 79.8569C147.194 78.6493 148.627 77.4459 149.984 76.2426L152.05 74.4312C152.146 74.3355 152.195 74.2696 152.195 74.2356C152.195 74.1973 152.156 74.1761 152.084 74.1761C151.149 74.1761 149.928 74.7118 148.427 75.7834C146.931 76.8506 145.634 77.9817 144.541 79.1766C143.452 80.3671 142.908 81.1708 142.908 81.5832C142.908 81.6343 142.929 81.6598 142.976 81.6598Z" fill="white"/>
<path fill-rule="evenodd" clip-rule="evenodd" d="M77.7254 7.13986C84.2991 12.2636 88.8787 17.7914 89.8014 19.877C89.4165 19.5454 88.8106 19.1563 88.0134 18.7311C80.6508 12.2658 72.5229 6.0662 64.2696 0.819099C71.883 6.15762 79.5049 12.0468 86.5591 18.0167C85.1772 17.3832 83.453 16.7007 81.4609 16.031C80.2426 15.6207 78.9223 15.2146 77.517 14.8213C76.3137 14.007 75.0806 13.1141 73.8432 12.151C57.9765 -0.216289 61.8565 -5.22527 77.7254 7.13986ZM82.1136 31.6405C82.6196 29.9971 84.1035 26.0745 87.3819 23.2872C82.4622 25.3112 79.2965 27.8795 78.0422 29.0169C77.9295 28.9319 77.8125 28.849 77.6977 28.7703C85.9511 21.0272 98.482 17.9062 109.601 18.3314V19.6262C106.11 19.4795 101.756 19.4944 98.0696 20.1917C96.811 20.4319 95.6756 20.7126 94.6381 21.1803C91.9125 22.4113 89.9608 25.1667 89.5632 28.1261C89.4017 28.2027 89.2422 28.2813 89.0849 28.3643C89.2188 27.0929 89.8418 23.8421 92.7247 21.495C89.391 22.4793 87.6753 23.3446 85.528 26.1021C83.8186 28.2983 82.9385 30.5966 82.5685 31.7553C82.4176 31.7128 82.2666 31.6745 82.1136 31.6405ZM67.5267 12.9248C79.5899 14.8489 89.1019 18.9395 89.9714 20.4745C76.4838 17.3152 62.0223 15.0573 48.1052 14.1856C62.0521 15.6951 76.4753 18.0338 89.8992 20.9401C88.5959 22.1264 78.2888 23.0555 66.2256 21.1314C40.2303 16.9835 41.5314 8.77692 67.5267 12.9248Z" fill="white"/>
<path fill-rule="evenodd" clip-rule="evenodd" d="M61.6269 36.8281C61.6333 36.8089 63.9486 30.9665 69.8909 29.0425C69.9568 29.0212 70.0185 29.0063 70.078 28.9957C69.8016 29.4804 69.6017 29.9716 69.4763 30.4372C64.4992 32.3697 62.0436 36.337 61.6269 36.8281ZM69.3445 52.0549C66.5168 52.7331 63.7636 52.3483 61.6546 50.7325C57.1005 47.2394 57.2898 39.3134 62.0776 33.0267C68.071 25.1645 76.2329 26.2871 79.8812 31.2642C78.023 31.2429 76.1606 31.7085 74.4853 32.661C72.8057 33.6156 71.3175 35.0592 70.2119 36.9939C69.015 39.0923 68.2687 41.7669 68.2283 45.024C68.1964 47.5455 68.6004 49.9352 69.3445 52.0549Z" fill="white"/>
<path fill-rule="evenodd" clip-rule="evenodd" d="M70.6478 48.5788C70.6414 48.5575 68.9086 42.0624 72.7844 36.6027C72.827 36.5432 72.8695 36.49 72.9141 36.4433C72.9864 37.0364 73.1267 37.5871 73.3159 38.0654C70.2757 42.915 70.6945 47.8921 70.6478 48.5788ZM89.7525 51.6552C87.9347 56.9235 84.0185 60.5527 79.5283 60.4953C73.3946 60.4166 68.5089 53.4921 68.6152 45.0283C68.7641 33.4221 78.0273 29.4103 84.5436 32.8332C82.8577 36.1244 82.6855 40.5891 85.2048 45.6299C86.4061 48.0345 87.9836 50.0755 89.7525 51.6552Z" fill="white"/>
<path fill-rule="evenodd" clip-rule="evenodd" d="M88.9573 47.6539C88.9424 47.6391 84.4607 42.7066 85.3941 36.1243C85.4047 36.0499 85.4196 35.984 85.4366 35.9224C85.7704 36.4114 86.1446 36.8344 86.5294 37.1704C86.0531 42.832 88.6852 47.0289 88.9573 47.6539ZM105.26 35.5461C109.01 43.0532 107.641 51.3575 102.198 54.0959C96.7557 56.8321 89.3039 52.9627 85.5514 45.4556C77.5617 29.4655 97.2702 19.556 105.26 35.5461Z" fill="white"/>
</svg>
